<svg xmlns="http://www.w3.org/2000/svg" width="48.03" height="48" viewBox="0 0 48.03 48">
  <path id="Path_247008" data-name="Path 247008" d="M58.7,100.4l-1.273-6.76,8.9-4.016V100.84H58.908ZM57.18,92.155l-1.516-7.578,10.609-4.653v8.245ZM55.5,83.289l-1.273-7.578L66.35,70.618v7.836Zm-1.516-8.9L52.3,65.95v-.424l.2-.2,12.989-7.4.849-.44V69.118Zm33.223-4.85,13.125,3.031-.364,3.243L85.993,82.8Zm12.474,8.033-.834,5.714L85.3,89.624l.424-5.274Zm-1.258,7.184-.849,5.911L84.462,96.6l.728-5.29Zm-1.061,7.4-1.273,8.685H83.962l.2-2.774ZM67.578,52.84V71.028l18.854-1.91.621-8.018Zm0,19.446v4.88l18.188-1.7.424-5.077Zm0,6.063v4.865l17.612-1.2.424-5.29Zm0,6.063V100.84H83.234l1.713-17.551Z" transform="translate(-52.3 -52.84)" fill="#fff"/>
</svg>
