<svg xmlns="http://www.w3.org/2000/svg" width="15.038" height="16" viewBox="0 0 15.038 16">
  <path id="Path_10776" data-name="Path 10776" d="M560,141.739H548.014a1,1,0,0,0-1.01.987v2h1.5a.5.5,0,0,1,0,1h-1.991a.5.5,0,1,0,0,1H547v2h1.5a.5.5,0,0,1,0,1h-1.991a.5.5,0,0,0-.5.5.5.5,0,0,0,.5.5H547v2h1.5a.5.5,0,0,1,0,1h-1.991a.5.5,0,1,0,0,1H547v2a1,1,0,0,0,1,1H560a1,1,0,0,0,1-1V142.7a.993.993,0,0,0-1-.987Zm-3.691,6.972c-.66.531-.841.269-1.168,0-.21-.21-.736.228-1.2.683s-.893.993-.677,1.2c.292.3.584.485,0,1.139s-.882.163-1.168-.134,0-1.582,1.209-2.815,2.482-1.553,2.815-1.209.806.642.14,1.168Zm-1.985-3.241a4.257,4.257,0,1,1-4.257,4.251A4.257,4.257,0,0,1,554.321,145.471Z" transform="translate(-545.958 -141.71)" fill="#686868"/>
</svg>
