<svg xmlns="http://www.w3.org/2000/svg" width="17.407" height="16.553" viewBox="0 0 17.407 16.553">
  <g id="noun-job-contract-3627352" transform="translate(-105.06 -47.03)">
    <path id="Path_247044" data-name="Path 247044" d="M229.329,159.468a1.395,1.395,0,1,1,1.395-1.395A1.4,1.4,0,0,1,229.329,159.468Zm0-2.013a.618.618,0,1,0,.618.618A.619.619,0,0,0,229.329,157.455Z" transform="translate(-118.509 -105.753)" fill="#121212"/>
    <path id="Path_247045" data-name="Path 247045" d="M186.869,118.577c-.027,0-.058,0-.1,0a2.962,2.962,0,0,1-2.864-2.959,2.958,2.958,0,1,1,3.046,2.959h-.035a.475.475,0,0,1-.052,0Zm0-5.143a2.182,2.182,0,0,0-1.319,3.921,2.15,2.15,0,0,0,1.253.443l.019,0a.394.394,0,0,0,.068,0l.045,0a2.182,2.182,0,0,0-.066-4.363Z" transform="translate(-76.049 -63.296)" fill="#121212"/>
    <path id="Path_247046" data-name="Path 247046" d="M186.007,240.307l-2.147-.938,1.247-2.85.392.3a2.169,2.169,0,0,0,1.255.443l.573.017Zm-1.123-1.339.721.317.575-1.315a2.872,2.872,0,0,1-.74-.272Z" transform="translate(-76.001 -182.757)" fill="#121212"/>
    <path id="Path_247047" data-name="Path 247047" d="M254.2,240.255l-1.323-3.029.573-.017a2.159,2.159,0,0,0,1.255-.443l.392-.3,1.247,2.852Zm-.175-2.337.575,1.315.721-.317-.556-1.271a2.945,2.945,0,0,1-.74.272Z" transform="translate(-142.567 -182.705)" fill="#121212"/>
    <path id="Path_247048" data-name="Path 247048" d="M118.681,63.583H105.9a.837.837,0,0,1-.837-.837V47.867a.837.837,0,0,1,.837-.837h10.06a.907.907,0,0,1,.649.27l2.64,2.64a.926.926,0,0,1,.27.649v4.154h.282l-.332.583-2.827,4.925.159.641.635-.185,2.085-3.633v5.671a.837.837,0,0,1-.837.837ZM105.9,47.807a.061.061,0,0,0-.06.06V62.745a.058.058,0,0,0,.06.06h12.783a.061.061,0,0,0,.06-.06V59.989l-.791,1.375-1.712.5-.431-1.729,2.932-5.1V50.589a.151.151,0,0,0-.041-.1l-2.64-2.64a.139.139,0,0,0-.1-.041Z" transform="translate(0 0)" fill="#121212"/>
    <path id="Path_247049" data-name="Path 247049" d="M410.432,61.312h-2.576a.764.764,0,0,1-.763-.764V57.972h.777v2.563h2.563Z" transform="translate(-291.302 -10.553)" fill="#121212"/>
    <path id="Path_247050" data-name="Path 247050" d="M178.45,371.82h7.229v.777H178.45Z" transform="translate(-70.783 -313.252)" fill="#121212"/>
    <path id="Path_247051" data-name="Path 247051" d="M178.45,425.47H183.5v.777H178.45Z" transform="translate(-70.783 -364.996)" fill="#121212"/>
    <path id="Path_247052" data-name="Path 247052" d="M407.96,198.947l-.431-1.729,4.272-7.435a1.234,1.234,0,1,1,2.141,1.226l0,0-2.751,4.8-1.517,2.64Zm.4-1.613.159.641.635-.185,1.362-2.37,2.753-4.793a.467.467,0,0,0,.062-.229.457.457,0,0,0-.853-.229Z" transform="translate(-291.724 -137.084)" fill="#121212"/>
    <path id="Path_247053" data-name="Path 247053" d="M530.707,247.739l-.674-.387,1.5-2.6-1.173-.725.408-.661,1.247.769a.673.673,0,0,1,.241.917Z" transform="translate(-409.876 -189.359)" fill="#121212"/>
  </g>
</svg>
