<svg xmlns="http://www.w3.org/2000/svg" width="41.415" height="41.51" viewBox="0 0 41.415 41.51">
  <g id="noun-architecture-1250955" transform="translate(-170.242 -97.161)">
    <path id="Path_247056" data-name="Path 247056" d="M252.148,126.024a.958.958,0,0,1-.7-.255.924.924,0,0,1,0-1.338l1.784-1.784a.946.946,0,0,1,1.338,1.338l-1.72,1.72a1.023,1.023,0,0,1-.7.318Z" transform="translate(-71.712 -22.332)" fill="#121212"/>
    <path id="Path_247057" data-name="Path 247057" d="M202.417,138.671a.958.958,0,0,1-.7-.255L170.5,107.132a.958.958,0,0,1-.255-.7,1.339,1.339,0,0,1,.255-.7l8.283-8.283a.924.924,0,0,1,1.338,0L211.4,128.8a.958.958,0,0,1,.255.7,1.339,1.339,0,0,1-.255.7l-8.283,8.283a1.283,1.283,0,0,1-.7.191Zm-29.882-32.176,29.946,29.946,6.881-7.008L179.416,99.486Z" fill="#121212"/>
    <path id="Path_247058" data-name="Path 247058" d="M257.748,147.152a.958.958,0,0,1-.7-.255.924.924,0,0,1,0-1.338l3.313-3.313a.946.946,0,0,1,1.338,1.338l-3.25,3.249a1.024,1.024,0,0,1-.7.319Z" transform="translate(-76.675 -39.701)" fill="#121212"/>
    <path id="Path_247059" data-name="Path 247059" d="M293.588,167.464a.958.958,0,0,1-.7-.255.924.924,0,0,1,0-1.338l1.784-1.784a.946.946,0,1,1,1.338,1.338l-1.784,1.784a.739.739,0,0,1-.637.255Z" transform="translate(-108.437 -59.057)" fill="#121212"/>
    <path id="Path_247060" data-name="Path 247060" d="M299.188,188.592a.958.958,0,0,1-.7-.255.924.924,0,0,1,0-1.338l3.313-3.313a.946.946,0,0,1,1.338,1.338l-3.313,3.313a.973.973,0,0,1-.637.255Z" transform="translate(-113.4 -76.426)" fill="#121212"/>
    <path id="Path_247061" data-name="Path 247061" d="M335.588,208.9a.958.958,0,0,1-.7-.255.924.924,0,0,1,0-1.338l1.784-1.784a.946.946,0,0,1,1.338,1.338l-1.784,1.784a.738.738,0,0,1-.637.255Z" transform="translate(-145.659 -95.782)" fill="#121212"/>
    <path id="Path_247062" data-name="Path 247062" d="M341.188,230.032a.958.958,0,0,1-.7-.255.924.924,0,0,1,0-1.338l3.313-3.313a.946.946,0,0,1,1.338,1.338l-3.313,3.313a.818.818,0,0,1-.637.255Z" transform="translate(-150.621 -113.152)" fill="#121212"/>
    <path id="Path_247063" data-name="Path 247063" d="M377.028,250.9a.959.959,0,0,1-.7-.255.924.924,0,0,1,0-1.338l1.784-1.784a.946.946,0,0,1,1.338,1.338l-1.784,1.784a.975.975,0,0,1-.637.255Z" transform="translate(-182.384 -133.004)" fill="#121212"/>
    <path id="Path_247064" data-name="Path 247064" d="M382.628,272.032a.959.959,0,0,1-.7-.255.924.924,0,0,1,0-1.338l3.313-3.313a.946.946,0,0,1,1.338,1.338l-3.313,3.313A.976.976,0,0,1,382.628,272.032Z" transform="translate(-187.347 -150.373)" fill="#121212"/>
    <path id="Path_247065" data-name="Path 247065" d="M419.028,292.344a.959.959,0,0,1-.7-.255.924.924,0,0,1,0-1.338l1.784-1.784a.946.946,0,0,1,1.338,1.338l-1.784,1.784a.913.913,0,0,1-.637.255Z" transform="translate(-219.605 -169.729)" fill="#121212"/>
    <path id="Path_247066" data-name="Path 247066" d="M424.628,313.472a.958.958,0,0,1-.7-.255.924.924,0,0,1,0-1.338l3.313-3.313a.946.946,0,1,1,1.338,1.338l-3.313,3.313A.916.916,0,0,1,424.628,313.472Z" transform="translate(-224.568 -187.098)" fill="#121212"/>
    <path id="Path_247067" data-name="Path 247067" d="M460.468,334.344a.958.958,0,0,1-.7-.255.924.924,0,0,1,0-1.338l1.784-1.784a.946.946,0,0,1,1.338,1.338l-1.784,1.784a.974.974,0,0,1-.637.255Z" transform="translate(-256.33 -206.95)" fill="#121212"/>
    <path id="Path_247068" data-name="Path 247068" d="M194.822,307.382a.74.74,0,0,1-.637-.255.917.917,0,0,1-.255-.956l2.931-9.366a1.335,1.335,0,0,1,.255-.382l7.2-7.455a.946.946,0,0,1,1.338,1.338l-7.073,7.263-2.294,7.391,7.327-2.485L210.5,295.4a.946.946,0,0,1,1.338,1.338L204.825,304a1.326,1.326,0,0,1-.382.255l-9.3,3.122h-.318Z" transform="translate(-20.949 -169.73)" fill="#121212"/>
    <path id="Path_247069" data-name="Path 247069" d="M369.017,131.248a.739.739,0,0,1-.637-.255.924.924,0,0,1,0-1.338l10.449-10.7-5.033-4.906-10.131,10.322a.946.946,0,1,1-1.338-1.338l10.768-11.023a.924.924,0,0,1,1.338,0l6.371,6.244a1.418,1.418,0,0,1,.319.7.958.958,0,0,1-.255.7l-11.151,11.342a.958.958,0,0,1-.7.255Z" transform="translate(-169.976 -12.902)" fill="#121212"/>
    <path id="Path_247070" data-name="Path 247070" d="M436.216,149.268a.958.958,0,0,1-.7-.255l-5.989-5.989a.946.946,0,0,1,1.338-1.338l5.989,5.989a.924.924,0,0,1,0,1.338A.739.739,0,0,1,436.216,149.268Z" transform="translate(-229.53 -39.205)" fill="#121212"/>
    <path id="Path_247071" data-name="Path 247071" d="M224.739,381.871a.958.958,0,0,1-.7-.255l-3.95-3.95a.946.946,0,1,1,1.338-1.338l3.95,3.95a.924.924,0,0,1,0,1.338.74.74,0,0,1-.637.255Z" transform="translate(-43.921 -247.15)" fill="#121212"/>
  </g>
</svg>
