<svg xmlns="http://www.w3.org/2000/svg" width="13.302" height="11.892" viewBox="0 0 13.302 11.892">
  <g id="noun-check-1150138" transform="translate(-70.939 -44.602)">
    <path id="Path_247054" data-name="Path 247054" d="M99.238,44.6a.716.716,0,0,0-.482.225c-1.476,1.544-4.75,5.052-6.467,6.86L90.4,50.023a.708.708,0,0,0-.937,1.061l2.4,2.122a.734.734,0,0,0,.981-.044c1.582-1.655,5.37-5.722,6.931-7.355a.707.707,0,0,0-.544-1.2ZM86.68,46.168v9.619a.735.735,0,0,0,.707.707h9.9A.735.735,0,0,0,98,55.787V50.836a.707.707,0,1,0-1.414,0v4.243H88.094v-8.2h7.214a.707.707,0,1,0,0-1.414H87.387A.794.794,0,0,0,86.68,46.168Z" transform="translate(-15.741)"/>
  </g>
</svg>
