<svg xmlns="http://www.w3.org/2000/svg" width="41.497" height="41.51" viewBox="0 0 41.497 41.51">
  <g id="noun-architecture-4433731" transform="translate(-92.652 -22.583)">
    <path id="Path_247020" data-name="Path 247020" d="M317.728,22.583a3.478,3.478,0,0,1,3.478,3.478v5.3H314.25v-5.3a3.478,3.478,0,0,1,3.478-3.478Zm1.978,7.274v-3.8a1.978,1.978,0,0,0-3.956,0v3.8Z" transform="translate(-204.328 0)" fill="#fff"/>
    <path id="Path_247021" data-name="Path 247021" d="M398.237,226.53a1.655,1.655,0,0,1-1.386-.747l-.019-.029-1.015-1.516-.281.188a1.6,1.6,0,0,1-.913.285h-.013a1.663,1.663,0,0,1-1.344-.7l-12.7-17.788.879-.606,2.534-1.9a1.987,1.987,0,0,0,.791-1.582v-5.374l14,23.626a1.66,1.66,0,0,1-.209,1.963l1.071,1.606a1.665,1.665,0,0,1-.458,2.285,1.6,1.6,0,0,1-.915.286h-.022Zm-.127-1.563a.159.159,0,0,0,.127.063h.021a.107.107,0,0,0,.062-.019l.013-.009a.16.16,0,0,0,.046-.219l-1.863-2.794.911-.626a.159.159,0,0,0,.052-.208l-11.211-18.919a3.5,3.5,0,0,1-1.39,2.685l-2.216,1.662,11.825,16.562a.16.16,0,0,0,.129.068h.006a.106.106,0,0,0,.062-.019l.012-.008,1.533-1.027Z" transform="translate(-265.755 -162.437)" fill="#fff"/>
    <path id="Path_247022" data-name="Path 247022" d="M94.3,226.522a1.6,1.6,0,0,1-.922-.29l-.276-.193-.006-.05a1.666,1.666,0,0,1-.169-2.038l0,0,1.068-1.6a1.66,1.66,0,0,1-.209-1.963l14-23.626v5.374a1.987,1.987,0,0,0,.791,1.582l2.535,1.9.879.607L99.27,224.007q-.031.043-.064.083l.684.458H98.609a1.656,1.656,0,0,1-1.6-.123l-.293-.193-1.034,1.545a1.657,1.657,0,0,1-1.375.744Zm-.05-1.512a.108.108,0,0,0,.05.012h0a.162.162,0,0,0,.136-.072l0,0,1.029-1.536-.263-.173-1.026,1.538a.16.16,0,0,0,.046.219Zm3.6-1.834a.155.155,0,0,0,.081.023.159.159,0,0,0,.13-.066l11.84-16.559-2.216-1.662a3.5,3.5,0,0,1-1.39-2.685L95.077,221.143a.159.159,0,0,0,.051.211l.011.007.9.619-.712,1.069h.379l.6-.9Z" transform="translate(0 -162.429)" fill="#fff"/>
    <path id="Path_247023" data-name="Path 247023" d="M292.575,139.25h7.275a1.659,1.659,0,0,1,1.659,1.659v6.365a1.667,1.667,0,0,1-.664,1.328l-2.542,1.906a2.039,2.039,0,0,1-.327.206,3.345,3.345,0,0,1-1.75.493H296.2a3.4,3.4,0,0,1-.635-.06v.305l-1.437-.941-2.546-1.91a1.667,1.667,0,0,1-.664-1.327h0v-6.365A1.661,1.661,0,0,1,292.575,139.25Zm3.652,10.457a1.847,1.847,0,0,0,.986-.285l.038-.024.04-.019a.536.536,0,0,0,.1-.061l.01-.007,2.546-1.91a.16.16,0,0,0,.064-.128v-6.365a.159.159,0,0,0-.159-.159h-7.275a.159.159,0,0,0-.159.159v6.365a.16.16,0,0,0,.064.128l2.527,1.9.2.131a1.894,1.894,0,0,0,.992.28h.029Zm-.014-7.729a2.569,2.569,0,1,1-1.816.752A2.551,2.551,0,0,1,296.212,141.978Zm0,3.637a1.076,1.076,0,0,0,.756-.313,1.069,1.069,0,1,0-1.511,0A1.076,1.076,0,0,0,296.212,145.615Z" transform="translate(-182.812 -107.574)" fill="#fff"/>
  </g>
</svg>
