<svg xmlns="http://www.w3.org/2000/svg" width="19.268" height="14.126" viewBox="0 0 19.268 14.126">
  <g id="Group_144" data-name="Group 144" transform="translate(-224.074 -1152)">
    <path id="Path_10946" data-name="Path 10946" d="M297.529,146.472l-5.2,2.807v-5.639l2.346,1.276Zm6.231-3.811a4.5,4.5,0,0,0-.766-2,2.711,2.711,0,0,0-1.934-.848c-2.7-.2-6.741-.2-6.741-.2h-.009s-4.041,0-6.741.2a2.706,2.706,0,0,0-1.935.857,4.421,4.421,0,0,0-.757,1.992,30.792,30.792,0,0,0-.2,3.252v1.522a30.792,30.792,0,0,0,.2,3.252,4.421,4.421,0,0,0,.757,1.992,3.19,3.19,0,0,0,2.132.865c1.539.148,6.552.2,6.552.2s4.041-.008,6.741-.206a2.689,2.689,0,0,0,1.934-.856,4.472,4.472,0,0,0,.766-1.992,32.154,32.154,0,0,0,.189-3.252v-1.522a32.154,32.154,0,0,0-.189-3.252Z" transform="translate(-60.607 1012.385)" fill="#121212"/>
  </g>
</svg>
