<svg xmlns="http://www.w3.org/2000/svg" width="16" height="16" viewBox="0 0 16 16">
  <g id="Group_77" data-name="Group 77" transform="translate(-2624.683 -3130.185)">
    <path id="Path_10905" data-name="Path 10905" d="M233.984,230.069h3.327V240.76h-3.327Zm1.658-5.309a1.934,1.934,0,1,1-1.922,1.922,1.934,1.934,0,0,1,1.922-1.922" transform="translate(2390.963 2905.425)" fill="#121212"/>
    <path id="Path_10906" data-name="Path 10906" d="M238.44,229.225h3.2v1.465h0a3.5,3.5,0,0,1,3.147-1.73c3.363,0,3.988,2.21,3.988,5.093v5.862h-3.291v-5.2c0-1.2,0-2.835-1.718-2.835s-1.994,1.345-1.994,2.739v5.3H238.44Z" transform="translate(2391.913 2906.27)" fill="#121212"/>
  </g>
</svg>
