<svg xmlns="http://www.w3.org/2000/svg" width="25.32" height="16" viewBox="0 0 25.32 16">
  <g id="Group_78" data-name="Group 78" transform="translate(-2617.933 -3001.753)">
    <path id="Path_10902" data-name="Path 10902" d="M238.789,175.019v3.213h4.279a3.581,3.581,0,0,1-1.567,2.409,4.648,4.648,0,0,1-2.33.75,4.569,4.569,0,0,1-1.738-.2,4.845,4.845,0,0,1-3.3-4.161,4.976,4.976,0,0,1,.092-1.461,4.74,4.74,0,0,1,5.267-3.687,4.305,4.305,0,0,1,2.344,1.132l2.33-2.33a10.783,10.783,0,0,0-1.409-1.04,7.742,7.742,0,0,0-3.805-1.027h-.764a7.226,7.226,0,0,0-1.317.211,8,8,0,0,0-2.778,14.259,7.768,7.768,0,0,0,4.279,1.514,8.492,8.492,0,0,0,2.633-.25,6.991,6.991,0,0,0,3.95-2.633,8.584,8.584,0,0,0,1.317-6.754Z" transform="translate(2387.163 2833.133)" fill="#fff"/>
    <path id="Path_10903" data-name="Path 10903" d="M251.789,174.231h-2.712V171.44h-2.186v2.791H244.1v2.186h2.791v2.791h2.186v-2.791h2.791v-2.186Z" transform="translate(2391.384 2834.026)" fill="#fff"/>
  </g>
</svg>
