<svg xmlns="http://www.w3.org/2000/svg" width="41.5" height="40.085" viewBox="0 0 41.5 40.085">
  <g id="noun-experience-2389079" transform="translate(-83.095 -22.345)">
    <path id="Path_247013" data-name="Path 247013" d="M123.641,223.4a5.674,5.674,0,1,1,5.675-5.674A5.681,5.681,0,0,1,123.641,223.4Zm0-9.849a4.174,4.174,0,1,0,4.175,4.174A4.179,4.179,0,0,0,123.641,213.55Z" transform="translate(-32.251 -175.447)" fill="#fff"/>
    <path id="Path_247014" data-name="Path 247014" d="M89.581,360.45H94.42l-.051.109a5.8,5.8,0,0,1,3.511,2.166l.436.574-.556.458a6.712,6.712,0,0,0-2.384,4.356L94.84,372.5l-.6.057c-.9.086-1.861.13-2.849.13a32.048,32.048,0,0,1-6.853-.691l-.008,0a1.822,1.822,0,0,1-1.416-2.013l.545-4.236A5.951,5.951,0,0,1,89.581,360.45Zm2.484,1.5H89.581a4.452,4.452,0,0,0-4.431,3.963l0,.013L84.6,370.2a.318.318,0,0,0,.266.333,30.56,30.56,0,0,0,6.526.655c.724,0,1.431-.024,2.108-.073l.389-3.182a8.231,8.231,0,0,1,2.342-4.8,4.368,4.368,0,0,0-2.986-1.174H92.065Z" transform="translate(0 -312.693)" fill="#fff"/>
    <path id="Path_247015" data-name="Path 247015" d="M455.162,223.4a5.674,5.674,0,1,1,5.674-5.674A5.681,5.681,0,0,1,455.162,223.4Zm0-9.849a4.174,4.174,0,1,0,4.174,4.174A4.179,4.179,0,0,0,455.162,213.55Z" transform="translate(-338.854 -175.447)" fill="#fff"/>
    <path id="Path_247016" data-name="Path 247016" d="M441.445,360.448h3.662a5.978,5.978,0,0,1,5.922,5.294l.508,4.279a1.849,1.849,0,0,1-1.421,1.967l-.021,0a34.957,34.957,0,0,1-6.839.688c-.974,0-1.96-.045-2.849-.13l-.6-.057-.537-4.4a6.51,6.51,0,0,0-2.383-4.341l-.568-.468.457-.577A5.931,5.931,0,0,1,441.445,360.448Zm8.6,9.7-.5-4.237a4.453,4.453,0,0,0-4.431-3.963h-3.662a4.429,4.429,0,0,0-3.019,1.18,7.944,7.944,0,0,1,2.333,4.8l.388,3.176c.677.048,1.395.073,2.108.073a33.45,33.45,0,0,0,6.531-.656A.351.351,0,0,0,450.041,370.148Z" transform="translate(-326.947 -312.691)" fill="#fff"/>
    <path id="Path_247017" data-name="Path 247017" d="M255.3,393.49h3.662a6.026,6.026,0,0,1,5.963,5.242v.008l.508,4.282a1.849,1.849,0,0,1-1.421,1.967l-.022,0a34.955,34.955,0,0,1-6.839.688,32.074,32.074,0,0,1-6.833-.687,1.8,1.8,0,0,1-1.444-2.015l.5-4.24A5.936,5.936,0,0,1,255.3,393.49Zm8.136,5.43a4.522,4.522,0,0,0-4.475-3.93H255.3a4.438,4.438,0,0,0-4.432,3.922l-.509,4.281a.294.294,0,0,0,.215.323l.047.009a30.556,30.556,0,0,0,6.531.656,33.45,33.45,0,0,0,6.531-.656.351.351,0,0,0,.255-.376Z" transform="translate(-153.304 -343.25)" fill="#fff"/>
    <path id="Path_247018" data-name="Path 247018" d="M289.4,256.439a5.674,5.674,0,1,1,5.674-5.674A5.681,5.681,0,0,1,289.4,256.439Zm0-9.849a4.174,4.174,0,1,0,4.174,4.174A4.179,4.179,0,0,0,289.4,246.59Z" transform="translate(-185.556 -206.004)" fill="#fff"/>
    <path id="Path_247019" data-name="Path 247019" d="M253.869,38.228h0a1.837,1.837,0,0,1-1.421-.689,1.8,1.8,0,0,1-.345-1.53l0-.011.8-3.274a.347.347,0,0,0-.094-.315L252.8,32.4l-2.517-2.223a1.778,1.778,0,0,1-.553-1.9,1.8,1.8,0,0,1,1.562-1.273l3.4-.3h.033c.067,0,.148-.074.2-.181l1.3-3.066a1.819,1.819,0,0,1,3.358,0l0,.006,1.315,3.14a.387.387,0,0,0,.259.149l3.342.293a1.726,1.726,0,0,1,1.556,1.174,1.831,1.831,0,0,1-.522,1.989l-.01.008-2.567,2.189a.346.346,0,0,0-.092.313l.8,3.274a1.772,1.772,0,0,1-.339,1.518,1.856,1.856,0,0,1-1.441.708,1.777,1.777,0,0,1-.943-.274l-2.907-1.769a.282.282,0,0,0-.3,0l-.008,0-2.9,1.765A1.805,1.805,0,0,1,253.869,38.228Zm-.305-1.883a.3.3,0,0,0,.056.258.329.329,0,0,0,.249.125.3.3,0,0,0,.164-.051l.01-.007,2.9-1.766a1.777,1.777,0,0,1,1.882,0l2.911,1.772a.273.273,0,0,0,.148.046.355.355,0,0,0,.264-.138.268.268,0,0,0,.057-.237l-.8-3.294a1.844,1.844,0,0,1,.581-1.785l2.563-2.185a.33.33,0,0,0,.1-.363.237.237,0,0,0-.227-.175l-.031,0L261,28.25a1.833,1.833,0,0,1-1.5-1.1l-1.3-3.1a.32.32,0,0,0-.6,0L256.3,27.135a1.731,1.731,0,0,1-1.532,1.076l-3.339.292a.3.3,0,0,0-.262.221.272.272,0,0,0,.084.3l.02.017,2.522,2.228a1.844,1.844,0,0,1,.576,1.78l0,.015Z" transform="translate(-154.036 0)" fill="#fff"/>
  </g>
</svg>
