<svg xmlns="http://www.w3.org/2000/svg" width="48" height="35.133" viewBox="0 0 48 35.133">
  <path id="Path_247007" data-name="Path 247007" d="M97.985,182.206,76.23,167.865a1.513,1.513,0,0,0-1.906,0l-7.564,5.068v-2.118c0-1.044-1.256-2.1-2.935-2.1s-3.026,1.059-3.026,2.1v6.127l-8.018,5.265a1.1,1.1,0,0,0-.2,1.694,1.891,1.891,0,0,0,2.1,0l20.7-13.706,20.7,13.706a1.664,1.664,0,0,0,.847.424,1.619,1.619,0,0,0,1.059-.424,1,1,0,0,0,0-1.694Zm-45.612,6.959c2.315,4.433,4.644,9.077,6.959,13.494,5.068-3.994,16.475-1.256,24.72-1.891,5.28-2.95,10.59-5.688,15.839-8.653,1.059-2.95,0-4.629-4.024-4.841-3.585,2.1-7.383,4.221-10.968,6.324-3.812-.635-7.564-1.044-11.422-1.679-5.28-7.186,6.974-1.513,10.363-2.118,2.1-1.513,2.542-2.95,0-4.629-5.7-1.059-11.422-2.33-17.125-3.585-4.841,2.526-9.485,5.053-14.342,7.564Z" transform="translate(-52.276 -167.527)" fill="#fff"/>
</svg>
