<svg xmlns="http://www.w3.org/2000/svg" width="16.011" height="16" viewBox="0 0 16.011 16">
  <path id="Path_10895" data-name="Path 10895" d="M248.975,114.708a4.194,4.194,0,0,0-1.3-2.723,4.391,4.391,0,0,0-2.931-1.2,58.912,58.912,0,0,0-7.916.088,4.04,4.04,0,0,0-3.458,3.107,44.665,44.665,0,0,0-.088,8.981,4.062,4.062,0,0,0,3.217,3.491,47.682,47.682,0,0,0,8.86.066,4.062,4.062,0,0,0,3.5-3.206,49.163,49.163,0,0,0,.11-8.607Zm-1.471,8a2.7,2.7,0,0,1-2.547,2.415,47,47,0,0,1-8.256-.121,2.624,2.624,0,0,1-1.987-2.262,53.436,53.436,0,0,1,0-8.069,2.7,2.7,0,0,1,2.536-2.4,55.368,55.368,0,0,1,7.872,0,2.7,2.7,0,0,1,2.415,2.547,56.99,56.99,0,0,1-.033,7.894Zm-6.4-8.113a4.106,4.106,0,1,0,4.106,4.106A4.106,4.106,0,0,0,241.1,114.6Zm0,6.752a2.74,2.74,0,1,0-.022,0Zm5.248-6.906a.966.966,0,1,1-.955-.966.955.955,0,0,1,.933.966Z" transform="translate(-233.102 -110.695)" fill="#fff"/>
</svg>
