<svg xmlns="http://www.w3.org/2000/svg" width="17.406" height="17.401" viewBox="0 0 17.406 17.401">
  <g id="noun-job-target-3752707" transform="translate(-103.211 -33.238)">
    <path id="Path_247028" data-name="Path 247028" d="M276.573,220.546q0,.081-.006.162c0,.017,0,.035-.006.054-.008.1.021-.122,0-.023a2.419,2.419,0,0,1-.075.3c-.013.04-.033.079-.044.122.046-.15,0-.015-.015.025a1.987,1.987,0,0,1-.158.26c-.01.012-.062.081-.008.012s0,0-.01.01q-.043.052-.093.1c-.033.033-.066.066-.1.1l-.048.042c-.031.025-.114.071.01,0-.079.05-.152.106-.233.152a1.252,1.252,0,0,1-.114.058c-.037.017-.112.033.021-.008-.025.008-.048.019-.071.027a1.88,1.88,0,0,1-.276.077c-.046.01-.187.014-.029.008-.058,0-.116.012-.174.014a2.323,2.323,0,0,1-.284-.01c-.1-.008.122.021.023,0l-.066-.012c-.056-.012-.11-.025-.164-.04s-.083-.025-.123-.041c-.023-.01-.048-.019-.071-.027.12.037.075.033.044.017a2.407,2.407,0,0,1-.268-.147c-.035-.023-.068-.05-.1-.073.118.073.048.037.019.012s-.039-.033-.058-.05a1.894,1.894,0,0,1-.193-.2c-.025-.029-.062-.1.012.019l-.037-.052c-.027-.039-.052-.077-.077-.118s-.042-.073-.062-.112l-.035-.069c-.008-.015-.014-.031-.021-.046l.029.068c-.025-.091-.066-.177-.089-.27-.01-.042-.019-.085-.027-.127s0-.122,0,.023c0-.035-.008-.071-.01-.106a2.1,2.1,0,0,1,0-.27c0-.027,0-.054.008-.079.008-.1-.021.122,0,.023.01-.052.019-.1.031-.154.021-.089.054-.172.083-.258.019-.06-.054.116-.013.033.012-.023.021-.046.033-.069.023-.046.048-.091.073-.133a1.251,1.251,0,0,1,.069-.106c.013-.021.031-.041.044-.062-.073.118-.037.048-.012.019a1.891,1.891,0,0,1,.193-.2l.058-.05c.031-.025.1-.06-.019.012.035-.021.068-.05.1-.073a2.557,2.557,0,0,1,.257-.143c.035-.017.093-.027-.033.014.025-.008.048-.019.071-.027.04-.015.081-.029.123-.041s.093-.025.139-.035l.064-.014c.131-.023-.085.008,0,0a2.521,2.521,0,0,1,.27-.012c.054,0,.108.006.16.012.079.006-.044-.006-.048-.008.033.01.069.012.1.019a1.971,1.971,0,0,1,.3.087c.037.013.1.058-.019-.01.029.015.062.029.093.044.046.023.091.048.133.073s.087.054.127.083.083.081-.017-.015c.017.017.041.033.058.048a2.206,2.206,0,0,1,.231.233c.01.012.021.027.033.039-.1-.108-.023-.029,0,0s.056.085.081.129.05.089.071.135a.766.766,0,0,0,.033.069c-.073-.131-.015-.035,0,0a2.043,2.043,0,0,1,.083.3c.006.025.008.052.014.077-.035-.135-.008-.066,0-.023.006.066.008.127.01.191a.482.482,0,1,0,.964,0,2.5,2.5,0,0,0-1.655-2.322,2.457,2.457,0,0,0-2.673.735,2.535,2.535,0,0,0-.577,1.425,2.445,2.445,0,0,0,1.391,2.376,2.548,2.548,0,0,0,1.558.189,2.477,2.477,0,0,0,1.956-2.405.487.487,0,0,0-.482-.482.493.493,0,0,0-.482.484Z" transform="translate(-163.439 -178.331)"/>
    <path id="Path_247029" data-name="Path 247029" d="M197.672,138.737c0,.131-.006.26-.015.392l-.017.185c0,.037-.023.147,0-.01-.006.035-.01.069-.015.1a5.2,5.2,0,0,1-.174.723c-.039.12-.083.235-.127.351-.031.077.046-.1,0-.01-.012.027-.023.054-.037.081-.027.058-.054.116-.083.172a4.941,4.941,0,0,1-.372.621c-.035.048-.069.1-.1.143-.046.064.071-.089.006-.008l-.064.079c-.077.094-.16.185-.243.274s-.172.174-.262.255l-.133.116-.068.056c-.029.023-.125.091,0,0a6.251,6.251,0,0,1-.6.4q-.162.09-.33.168c-.027.014-.054.025-.081.037l-.035.015.044-.019c-.06.021-.12.048-.179.069a5.049,5.049,0,0,1-.71.2l-.181.035c-.031.006-.062.01-.091.013-.112.017.106-.013,0,0-.129.015-.258.027-.388.031a5.029,5.029,0,0,1-.781-.027l-.079-.01c.162.017.033,0,0,0-.06-.01-.122-.019-.181-.033-.123-.025-.247-.054-.368-.087s-.239-.071-.357-.114l-.168-.064a.274.274,0,0,1-.035-.015c-.056-.021.1.042.044.019l-.095-.041a4.952,4.952,0,0,1-.636-.347c-.1-.066-.2-.137-.3-.21s.069.056.008.006l-.069-.056c-.048-.04-.1-.081-.145-.123a5.049,5.049,0,0,1-.511-.525l-.1-.127c-.037-.046.064.085.029.039-.008-.01-.015-.019-.023-.031l-.06-.081c-.071-.1-.139-.2-.2-.307s-.125-.212-.181-.322c-.027-.052-.054-.106-.079-.16-.014-.027-.025-.054-.037-.081s-.056-.129-.021-.048-.008-.021-.015-.037-.021-.056-.033-.085c-.023-.06-.044-.121-.064-.183-.039-.116-.071-.231-.1-.349s-.056-.247-.077-.372c-.006-.031-.01-.062-.015-.091a.482.482,0,0,0-.008-.052c0-.008.015.116.008.062s-.015-.133-.021-.2a4.893,4.893,0,0,1,0-.806c0-.058.01-.116.015-.174l.012-.093s-.019.127-.006.048c0-.017.006-.035.008-.052.019-.125.044-.251.073-.374a4.93,4.93,0,0,1,.23-.717c.04-.1-.037.081,0,.008.01-.023.021-.046.031-.071.029-.062.058-.123.089-.185.054-.106.112-.21.172-.314s.129-.208.2-.311c.035-.048.071-.095.1-.143s-.04.052-.037.046.021-.027.031-.04l.064-.079a4.9,4.9,0,0,1,.509-.53c.089-.079.181-.152.272-.228,0,0-.1.075-.037.029l.031-.023.071-.052c.052-.037.1-.073.158-.108a4.918,4.918,0,0,1,.646-.359c.027-.014.054-.025.081-.037l.035-.015c.046-.021-.064.027-.056.023.064-.025.127-.052.193-.075.114-.042.23-.079.345-.112s.245-.066.368-.091c.06-.012.122-.023.181-.033.031-.006.062-.01.093-.014s.068-.01-.012,0l.015,0a5.13,5.13,0,0,1,.77-.033c.129,0,.26.014.39.029.023,0,.129.015.042,0s.017,0,.04.006c.066.01.131.021.195.035a5.02,5.02,0,0,1,.727.2c.052.019.1.039.156.06.015.006.031.013.048.019s-.1-.044-.056-.023c.031.014.064.027.094.042.112.052.224.106.332.166.218.12.413.264.617.4.006,0-.087-.069-.048-.037.013.012.027.021.04.031l.069.056c.046.039.091.077.135.116q.136.122.266.255c.085.089.168.179.247.274.039.046.073.093.112.139,0,0-.075-.1-.029-.037l.023.031c.019.027.04.054.06.083a4.836,4.836,0,0,1,.376.621c.027.054.054.108.079.162.014.027.025.054.037.081s.013.031.021.046c.025.054-.04-.1-.019-.044.046.116.091.233.129.351a4.885,4.885,0,0,1,.179.737c.006.031.01.062.014.093.008.054-.01-.069-.008-.062l.006.052q.012.087.017.174c0,.152.008.291.008.43a.482.482,0,1,0,.964,0,5.45,5.45,0,0,0-1-3.146A5.558,5.558,0,0,0,195,133.6,5.435,5.435,0,0,0,189,135.262a5.539,5.539,0,0,0-1.242,3.113,5.437,5.437,0,0,0,3.175,5.317,5.561,5.561,0,0,0,3.395.372,5.444,5.444,0,0,0,4.239-4.451,5.81,5.81,0,0,0,.073-.876.487.487,0,0,0-.482-.482.493.493,0,0,0-.482.482Z" transform="translate(-81.549 -96.523)"/>
    <path id="Path_247030" data-name="Path 247030" d="M119.105,57.206c0,.216-.008.432-.025.648-.008.1-.017.195-.029.293,0,.039-.031.2,0,.029-.01.062-.017.122-.027.183a7.848,7.848,0,0,1-.282,1.167c-.062.187-.129.374-.2.557l-.029.071c.056-.141.021-.052.008-.021-.021.046-.041.095-.064.141-.042.093-.087.185-.133.276a7.883,7.883,0,0,1-.6,1c-.054.075-.11.15-.164.224s.073-.093.014-.017l-.046.06c-.031.041-.064.079-.1.118-.127.152-.258.3-.4.444s-.28.28-.428.413c-.069.062-.139.122-.21.181l-.1.081c-.033.027-.2.149-.062.05a9.857,9.857,0,0,1-.974.64c-.176.1-.353.187-.534.272l-.129.058c-.023.01-.048.019-.071.031.137-.064.052-.021.021-.01-.095.039-.191.077-.287.112a7.888,7.888,0,0,1-1.15.326c-.095.019-.189.037-.285.052l-.156.025c-.035.006-.133.015.023,0-.027,0-.052.008-.079.01-.212.025-.426.042-.64.052a7.814,7.814,0,0,1-1.238-.046c-.041,0-.23-.035-.056-.006-.044-.008-.087-.012-.131-.019-.1-.015-.208-.035-.311-.054q-.3-.058-.584-.139c-.2-.056-.4-.118-.592-.189-.089-.033-.177-.066-.264-.1-.033-.013-.177-.081-.027-.01l-.164-.073a8.018,8.018,0,0,1-1.026-.561c-.164-.106-.322-.218-.476-.334-.027-.019-.1-.081.017.014l-.06-.046c-.041-.031-.079-.064-.118-.095-.077-.064-.154-.129-.23-.2a8.265,8.265,0,0,1-.81-.833c-.06-.071-.118-.143-.176-.216s.071.095.014.017l-.046-.06c-.031-.041-.06-.081-.091-.123-.114-.158-.222-.32-.322-.486s-.206-.351-.3-.532c-.042-.083-.083-.168-.123-.253-.017-.039-.037-.077-.054-.116-.01-.023-.021-.046-.031-.069-.052-.12.031.075,0,0a7.967,7.967,0,0,1-.372-1.128c-.05-.2-.091-.4-.125-.6-.008-.048-.015-.1-.023-.143l-.012-.079c.025.154.008.058,0,.023-.013-.106-.025-.212-.033-.318a7.887,7.887,0,0,1-.006-1.281c.008-.1.017-.2.027-.293,0-.041.033-.23.006-.058l.023-.158c.033-.2.071-.407.12-.608a7.817,7.817,0,0,1,.368-1.15l.029-.071c-.052.131-.027.064-.013.033l.058-.129q.064-.139.133-.278c.089-.176.181-.347.284-.515s.216-.345.334-.511c.054-.075.11-.15.166-.226s-.062.077-.021.027c.014-.017.027-.033.039-.05.037-.046.073-.093.112-.139a8.119,8.119,0,0,1,.808-.841c.145-.131.3-.253.447-.374-.131.1.014-.01.044-.033s.075-.056.114-.083c.087-.062.174-.122.262-.179a7.964,7.964,0,0,1,1.028-.569l.141-.064.046-.021c.089-.039-.11.046-.021.008s.191-.077.287-.112q.281-.1.567-.185c.2-.058.405-.106.611-.149.095-.019.191-.037.285-.052.044-.008.087-.014.131-.019s.133-.015-.023,0l.106-.014a8.1,8.1,0,0,1,1.242-.05c.206.008.413.023.617.046.041,0,.23.035.058.006.052.01.106.015.158.023.1.017.208.035.312.056a8,8,0,0,1,1.153.324c.089.033.177.066.264.1l.071.029c-.141-.056-.05-.021-.021-.008l.141.062c.183.083.363.174.538.27a9.9,9.9,0,0,1,.989.646c-.129-.093-.008-.006.023.017s.079.064.118.1c.079.066.154.131.231.2.145.129.285.264.42.4s.27.291.4.444c.029.037.06.071.089.108s.133.177.035.042c.06.083.122.162.181.245a8.147,8.147,0,0,1,.606,1c.042.083.083.168.123.255.021.046.042.093.064.141.01.023.019.048.031.071-.064-.139-.021-.05-.01-.019.077.187.147.378.21.571a8.022,8.022,0,0,1,.285,1.184c.008.048.015.1.021.145s.01.108,0-.037c0,.027.006.052.01.079.012.1.021.195.029.293.017.22.025.44.025.66a.482.482,0,1,0,.964,0,8.433,8.433,0,0,0-1.566-4.891,8.565,8.565,0,0,0-4.033-3.049,8.429,8.429,0,0,0-6.291,15.626,8.557,8.557,0,0,0,5.206.561,8.428,8.428,0,0,0,6.575-6.916,9.062,9.062,0,0,0,.108-1.331.481.481,0,1,0-.962,0Z" transform="translate(0 -14.991)"/>
    <path id="Path_247031" data-name="Path 247031" d="M329.434,88.28l.683-.683,1.624-1.624L333.718,84l1.7-1.7c.276-.276.557-.546.827-.827l.012-.012a.483.483,0,0,0-.683-.683l-.683.683-1.624,1.624-1.977,1.977-1.7,1.7c-.276.276-.557.546-.827.827l-.012.012a.483.483,0,0,0,.683.683Z" transform="translate(-217.452 -45.724)"/>
    <path id="Path_247032" data-name="Path 247032" d="M524.2,34.909h-1.67l.482.482v-1.67a.482.482,0,1,0-.964,0v1.67a.49.49,0,0,0,.482.482h1.67a.482.482,0,1,0,0-.964Z" transform="translate(-404.066 0)"/>
  </g>
</svg>
