<svg xmlns="http://www.w3.org/2000/svg" width="84.022" height="72" viewBox="0 0 84.022 72">
  <g id="noun-find-job-3628061" transform="translate(-107.406 -72.722)">
    <path id="Path_247033" data-name="Path 247033" d="M237.214,147.115a7.9,7.9,0,0,1-6.144-3.091,10.816,10.816,0,0,1-2.367-6.82,8.118,8.118,0,0,1,2.565-6.247,9.421,9.421,0,0,1,11.893,0,8.15,8.15,0,0,1,2.565,6.247,10.736,10.736,0,0,1-2.367,6.811,7.892,7.892,0,0,1-6.144,3.1Zm0-14.514c-1.428,0-4.754.451-4.754,4.6a7.1,7.1,0,0,0,1.522,4.443,3.9,3.9,0,0,0,6.463-.009,7.1,7.1,0,0,0,1.522-4.434c0-4.152-3.325-4.6-4.754-4.6Z" transform="translate(-100.461 -46.48)"/>
    <path id="Path_247034" data-name="Path 247034" d="M191.283,259.875h-3.758v-5.157a6.736,6.736,0,0,1,4-6.153l7.1-3.156a2.186,2.186,0,0,1,2.6.686l1.888,2.471,1.926-2.48a2.186,2.186,0,0,1,2.593-.676l.028.009,7.036,3.138a6.743,6.743,0,0,1,3.993,6.153v5.157h-3.758v-5.157a2.968,2.968,0,0,0-1.766-2.715l-5.909-2.63-4.171,5.374-4.1-5.383-5.946,2.64a2.978,2.978,0,0,0-1.766,2.715Z" transform="translate(-66.356 -142.875)"/>
    <path id="Path_247035" data-name="Path 247035" d="M267.26,282.57h3.758v8.22H267.26Z" transform="translate(-132.394 -173.8)"/>
    <path id="Path_247036" data-name="Path 247036" d="M466.939,141.4a7.781,7.781,0,0,1-6.05-3.044,10.592,10.592,0,0,1-2.33-6.7,7.977,7.977,0,0,1,2.527-6.144,9.254,9.254,0,0,1,11.705,0,8,8,0,0,1,2.527,6.144,10.591,10.591,0,0,1-2.33,6.7A7.78,7.78,0,0,1,466.939,141.4Zm0-14.213c-1.39,0-4.622.432-4.622,4.472a6.88,6.88,0,0,0,1.484,4.321,3.792,3.792,0,0,0,6.275,0,6.935,6.935,0,0,0,1.484-4.321c0-4.152-3.542-4.472-4.622-4.472Z" transform="translate(-290.832 -41.999)"/>
    <path id="Path_247037" data-name="Path 247037" d="M454.969,251.11h-3.758v-4.876a2.866,2.866,0,0,0-1.7-2.621l-5.759-2.565-4.086,5.27-4.03-5.27-5.721,2.565a2.924,2.924,0,0,0-1.193,1l-3.091-2.142a6.622,6.622,0,0,1,2.743-2.283l6.9-3.091a2.186,2.186,0,0,1,2.6.686l1.822,2.377,1.851-2.386a2.184,2.184,0,0,1,2.621-.658l6.886,3.072a6.64,6.64,0,0,1,3.936,6.059v4.866Z" transform="translate(-263.56 -135.989)"/>
    <path id="Path_247038" data-name="Path 247038" d="M496.4,273.66h3.758v7.882H496.4Z" transform="translate(-322.172 -166.421)"/>
    <path id="Path_247039" data-name="Path 247039" d="M136.726,131.363a29.316,29.316,0,1,1,20.734-8.586A29.154,29.154,0,0,1,136.726,131.363Zm0-54.881a25.561,25.561,0,1,0,25.561,25.561A25.594,25.594,0,0,0,136.726,76.482Z" transform="translate(0)"/>
    <path id="Path_247040" data-name="Path 247040" d="M385.926,348.62l4.9,4.907-2.66,2.654-4.9-4.907Z" transform="translate(-228.472 -228.504)"/>
    <path id="Path_247041" data-name="Path 247041" d="M408.572,380a6.037,6.037,0,0,1-4.3-1.785L392.038,365.98a1.968,1.968,0,0,1,0-2.771l5.843-5.843a1.967,1.967,0,0,1,2.771,0L412.884,369.6a6.092,6.092,0,0,1-4.312,10.4Zm-12.607-15.4,10.963,10.963a2.332,2.332,0,0,0,3.3-3.3L399.263,361.3Z" transform="translate(-235.265 -235.274)"/>
  </g>
</svg>
