<svg xmlns="http://www.w3.org/2000/svg" width="41" height="41" viewBox="0 0 41 41">
  <g id="noun-job-2450430" transform="translate(-93.342 -23.332)">
    <path id="Path_247072" data-name="Path 247072" d="M94.274,23.332a.932.932,0,0,0-.932.932V63.4a.932.932,0,0,0,.932.932h30.751a.932.932,0,0,0,.932-.932V24.264a.932.932,0,0,0-.932-.932Zm.932,1.864h28.887V62.468H95.206Z" transform="translate(0 0)"/>
    <path id="Path_247073" data-name="Path 247073" d="M174.027,93.344a10.715,10.715,0,1,0,10.717,10.714A10.729,10.729,0,0,0,174.027,93.344Zm0,1.865a8.846,8.846,0,0,1,6.524,14.828v-2.249a.933.933,0,0,0-.335-.716l-2.8-2.329a.931.931,0,0,0-1.194,0l-2.2,1.833-2.2-1.833a.933.933,0,0,0-1.194,0l-2.8,2.329,1.194,1.432,2.2-1.833,2.2,1.833a.932.932,0,0,0,1.194,0l2.2-1.833,1.864,1.553v3.357a8.85,8.85,0,1,1-4.66-16.371Z" transform="translate(-64.38 -64.42)"/>
    <path id="Path_247074" data-name="Path 247074" d="M254.538,128.31a3.728,3.728,0,1,0,3.728,3.728A3.743,3.743,0,0,0,254.538,128.31Zm0,1.864a1.864,1.864,0,1,1-1.864,1.864A1.851,1.851,0,0,1,254.538,130.174Z" transform="translate(-144.891 -96.593)"/>
    <path id="Path_247075" data-name="Path 247075" d="M233.33,443.35v1.864h6.524V443.35Z" transform="translate(-128.807 -386.471)"/>
    <path id="Path_247076" data-name="Path 247076" d="M209.99,390.81v1.864h13.977V390.81Z" transform="translate(-107.331 -338.127)"/>
    <path id="Path_247077" data-name="Path 247077" d="M514.248,23.332a.932.932,0,0,0-.932.932V57.811a.931.931,0,0,0,.1.416l2.8,5.589a.932.932,0,0,0,1.668,0l2.793-5.589a.936.936,0,0,0,.1-.416V24.264a.932.932,0,0,0-.932-.932Zm.933,1.864h3.728v9.317H516.58v1.865h2.328v20.5H515.18Zm.576,33.547h2.575l-1.288,2.573Z" transform="translate(-386.43 0)"/>
    <path id="Path_247078" data-name="Path 247078" d="M338.31,443.35v1.864h1.864V443.35Z" transform="translate(-225.402 -386.471)"/>
  </g>
</svg>
