<svg xmlns="http://www.w3.org/2000/svg" width="16" height="12.845" viewBox="0 0 16 12.845">
  <path id="Path_10892" data-name="Path 10892" d="M182.624,121.734a3.309,3.309,0,0,1-3.057-2.28,3.351,3.351,0,0,0,1.408,0h.053a3.341,3.341,0,0,1-2.1-1.513,3.151,3.151,0,0,1-.473-1.744,3.372,3.372,0,0,0,1.46.4,3.32,3.32,0,0,1-1.355-2,3.267,3.267,0,0,1,.357-2.385,9.361,9.361,0,0,0,6.776,3.435.822.822,0,0,0-.053-.357,3.225,3.225,0,0,1,.473-2.1,3.3,3.3,0,0,1,5.106-.567.168.168,0,0,0,.179,0,6.619,6.619,0,0,0,1.912-.735h0a3.351,3.351,0,0,1-1.408,1.786,6.041,6.041,0,0,0,1.87-.609h0l-.378.494a6.811,6.811,0,0,1-1.2,1.135.116.116,0,0,0-.053.095,8.4,8.4,0,0,1-.063,1.46,9.454,9.454,0,0,1-.851,2.931,9.066,9.066,0,0,1-1.775,2.584,8.709,8.709,0,0,1-4.507,2.521,9.878,9.878,0,0,1-1.839.221,9.277,9.277,0,0,1-5.253-1.418h-.084a6.724,6.724,0,0,0,3.288-.462,6.513,6.513,0,0,0,1.565-.893Z" transform="translate(-177.77 -111.668)" fill="#fff"/>
</svg>
