<svg xmlns="http://www.w3.org/2000/svg" width="17.706" height="15.361" viewBox="0 0 17.706 15.361">
  <path id="noun-worker-1261371_-_Outline" data-name="noun-worker-1261371 - Outline" d="M72.909,53.285H70.686a.44.44,0,0,1-.418-.5,19.78,19.78,0,0,1,2.289-5.739.44.44,0,0,1,.192-.157c.637-.269,2.411-.868,3.489-1.222a6.312,6.312,0,0,1-.866-2.23h-.447a.441.441,0,0,1-.44-.44V41.672a.441.441,0,0,1,.44-.44H75.2a3.972,3.972,0,0,1,5.269-3.07l.03.011a3.964,3.964,0,0,1,2.532,3.055h.276a.441.441,0,0,1,.44.44v1.324a.441.441,0,0,1-.44.44h-.269a.165.165,0,0,1-.031,0h-.148a6.367,6.367,0,0,1-.849,2.241c1.313.477,2.86,1.032,3.458,1.228a.441.441,0,0,1,.227.17,19.25,19.25,0,0,1,2.271,5.713.441.441,0,0,1-.107.346.436.436,0,0,1-.33.149H85.309a.442.442,0,0,1-.379-.216,6.862,6.862,0,0,0-.553-.8,7.3,7.3,0,0,0-.512.792.441.441,0,0,1-.384.225H74.706a.439.439,0,0,1-.39-.234,7.155,7.155,0,0,0-.477-.779,7.414,7.414,0,0,0-.553.8A.442.442,0,0,1,72.909,53.285Zm-2.188-.3h2.188a.139.139,0,0,0,.12-.067,6.1,6.1,0,0,1,.712-.986l.112-.109.1.117a5.984,5.984,0,0,1,.624.972.14.14,0,0,0,.125.074h8.775a.141.141,0,0,0,.123-.072,6.051,6.051,0,0,1,.66-.976l.1-.109.109.1a5.715,5.715,0,0,1,.712.984.139.139,0,0,0,.121.069H87.53a.137.137,0,0,0,.1-.047.141.141,0,0,0,.035-.112,18.82,18.82,0,0,0-2.221-5.581.142.142,0,0,0-.073-.055c-.628-.206-2.293-.8-3.642-1.295l-.179-.065.1-.159a6.017,6.017,0,0,0,.924-2.406l.018-.13h.391a.16.16,0,0,1,.03,0h.286a.141.141,0,0,0,.14-.14V41.669a.141.141,0,0,0-.14-.14h-.536l-.018-.13a3.664,3.664,0,0,0-2.363-2.946l-.01,0-.01,0A3.672,3.672,0,0,0,75.479,41.4l-.018.13h-.535a.141.141,0,0,0-.14.14V43a.141.141,0,0,0,.14.14h.707l.018.13a5.97,5.97,0,0,0,.944,2.4l.11.164-.188.061c-1.352.442-3.071,1.029-3.65,1.274a.143.143,0,0,0-.062.05,19.338,19.338,0,0,0-2.24,5.61.14.14,0,0,0,.139.159Zm2.108-.28H70.865l.035-.179a20.677,20.677,0,0,1,2.087-5.075l.125-.2.062.1c.744-.29,2.36-.838,3.609-1.244l.1-.031.065.077a2.6,2.6,0,0,0,4.359,0l.068-.08.1.036c.923.337,2.888,1.048,3.72,1.327l.051.017.028.046a19.929,19.929,0,0,1,2.065,5.037l.034.178H85.388l-.044-.072c-.3-.482-.707-1.059-.984-1.068-.2,0-.51.358-.918,1.065L83.4,52.7H74.79l-.043-.078c-.561-1.02-.8-1.071-.847-1.071a.088.088,0,0,0-.025,0l-.018.005h-.018c-.254.009-.665.586-.966,1.069Zm-1.6-.3h1.431c.685-1.083.994-1.132,1.149-1.139a.36.36,0,0,1,.088-.011c.182,0,.49.121,1.067,1.149h8.259c.589-1,.9-1.14,1.139-1.14.15,0,.487.016,1.19,1.14H87a20.182,20.182,0,0,0-1.96-4.711c-.833-.281-2.639-.934-3.578-1.277a3.145,3.145,0,0,1-2.348,1.208,3.188,3.188,0,0,1-2.335-1.208c-1.308.426-2.907.972-3.565,1.234A21.409,21.409,0,0,0,71.232,52.4Zm7.884-5.361a2.776,2.776,0,0,1-2.079-1.221,5.71,5.71,0,0,1-1.081-2.512l-.027-.173h6.389l-.028.174C82.038,44.876,80.8,47.044,79.117,47.044Zm-2.833-3.607a5.411,5.411,0,0,0,.991,2.2,2.494,2.494,0,0,0,1.842,1.106c1.432,0,2.555-1.9,2.846-3.307Zm6.172-.582H75.067V41.813h.527a.14.14,0,0,0,.14-.132,3.391,3.391,0,0,1,1.952-2.859l.135-.063.887,1.849a.433.433,0,0,0,.42.236.465.465,0,0,0,.405-.255l.005-.012.866-1.821.135.063a3.387,3.387,0,0,1,1.96,2.86.141.141,0,0,0,.14.132h.527v1.043h-.68A.164.164,0,0,1,82.455,42.855Zm-7.088-.3h7.072a.164.164,0,0,1,.031,0h.4v-.443h-.227A.442.442,0,0,1,82.2,41.7a3.086,3.086,0,0,0-1.654-2.541L79.812,40.7a.759.759,0,0,1-.666.443l-.05,0a.728.728,0,0,1-.656-.4L77.68,39.16a3.09,3.09,0,0,0-1.647,2.54.441.441,0,0,1-.439.413h-.227Zm3.723-1.8-1.005-2.1.176-.046a3.408,3.408,0,0,1,.857-.107,3.369,3.369,0,0,1,.839.1l.18.046Zm-.575-1.892.58,1.209.6-1.213A3.208,3.208,0,0,0,78.516,38.865Z" transform="translate(-70.264 -37.924)"/>
</svg>
