<svg xmlns="http://www.w3.org/2000/svg" width="17.406" height="16" viewBox="0 0 17.406 16">
  <g id="noun-job-3752704" transform="translate(-102.858 -52.691)">
    <path id="Path_247024" data-name="Path 247024" d="M119.3,130.822V141.8c0,.013,0,.027,0,.04,0,.056.021-.1.008-.048-.006.025-.012.05-.019.075a.134.134,0,0,0-.012.037s.048-.094.023-.056a.752.752,0,0,0-.037.067c-.01.017-.046.064,0,0s.01-.012,0,0-.039.035-.054.052c-.029.033.046-.035.048-.037a.109.109,0,0,0-.031.021c-.021.012-.046.023-.067.037-.039.025.056-.023.056-.023-.015,0-.033.012-.05.015s-.052.01-.077.017c.01,0,.125-.008.048-.01h-14.7c-.137,0-.275,0-.412,0h-.008l-.04,0c-.048,0,.064.01.062.01s-.027,0-.039-.008-.05-.015-.075-.021c-.046-.012.056.025.056.025a.344.344,0,0,0-.046-.023.586.586,0,0,0-.064-.04c.075.025.071.062.039.027a.356.356,0,0,1-.027-.027c-.013-.013-.071-.083-.021-.017s-.008-.017-.019-.037l-.017-.035c-.025-.039.023.056.023.056,0-.025-.017-.05-.023-.075s0-.025-.008-.039c-.012-.046.008.064.008.062a.248.248,0,0,0,0-.054v-10.98c0-.013,0-.027,0-.04,0-.048-.01.064-.01.062.006-.019.008-.044.013-.064s.039-.1.006-.027.006-.006.015-.023.064-.09.012-.025.013-.012.029-.027a.338.338,0,0,0,.029-.025c.029-.033-.046.035-.048.037a.375.375,0,0,0,.075-.046.3.3,0,0,0,.035-.017s-.1.035-.056.025c.029-.008.058-.017.087-.023.079-.019-.106,0-.023,0h15.13a.283.283,0,0,0,.04,0s-.11-.021-.062-.008c.029.008.06.015.089.021.077.017-.087-.05-.021-.01.021.013.044.027.065.039.067.039-.071-.069-.017-.013.017.017.035.037.054.054.056.054-.052-.085-.013-.017.013.025.029.054.044.077.025.039-.023-.056-.023-.056s.01.025.012.037.012.05.019.075c.012.046-.008-.064-.008-.062a.446.446,0,0,1,.01.058.481.481,0,0,0,.963,0,1.174,1.174,0,0,0-1.157-1.155H104.043a1.2,1.2,0,0,0-.826.322,1.183,1.183,0,0,0-.358.867v10.837c0,.054,0,.108,0,.162a1.174,1.174,0,0,0,1.155,1.1c.125,0,.248,0,.374,0h14.694a1.178,1.178,0,0,0,.859-.358,1.2,1.2,0,0,0,.322-.836V130.818a.487.487,0,0,0-.481-.481.5.5,0,0,0-.483.485Z" transform="translate(0 -74.265)"/>
    <path id="Path_247025" data-name="Path 247025" d="M297.832,225.977v.874c0,.341-.013.686,0,1.026a.065.065,0,0,0,0,.019.3.3,0,0,1,.3-.3.441.441,0,0,0-.071,0h-2.234a1.7,1.7,0,0,0-.243,0,.3.3,0,0,1,.3.3.065.065,0,0,0,0-.019c0-.046,0-.092,0-.139v-1.764c.017,0-.048.164-.04.15a.32.32,0,0,1-.108.108s-.142.06-.15.04c0,0,.021,0,.023,0,.112.006.223,0,.335,0h1.248c.3,0,.612.013.917,0a.093.093,0,0,0,.023,0s-.075-.01-.077-.012a.3.3,0,0,1-.22-.285.481.481,0,1,0,.963,0,.68.68,0,0,0-.664-.664h-2.4a.8.8,0,0,0-.607.187.819.819,0,0,0-.2.653v.612c0,.372-.006.741,0,1.113a.681.681,0,0,0,.684.684c.117,0,.235,0,.352,0H297.3c.277,0,.555.012.832,0a.68.68,0,0,0,.664-.664c0-.029,0-.056,0-.085v-1.835a.481.481,0,1,0-.963,0Z" transform="translate(-185.296 -166.543)"/>
    <path id="Path_247026" data-name="Path 247026" d="M119.341,130.759v.753c0,.264.012.53,0,.793,0,.031,0,.062-.008.092l-.006.052c0,.054.01-.069.01-.062-.015.064-.021.129-.037.195a2.857,2.857,0,0,1-.112.358c-.029.075.052-.11,0-.01-.013.027-.025.054-.039.081q-.043.087-.092.168c-.029.046-.058.092-.091.139-.019.027-.04.054-.06.083,0,0,.071-.085.037-.048l-.04.048a2.364,2.364,0,0,1-.248.252l-.067.058c-.085.071.073-.052.008-.006s-.1.073-.156.108c-.106.067-.22.112-.325.173-.006,0,.1-.042.056-.023l-.048.019c-.029.012-.056.021-.085.031-.062.021-.123.039-.187.056s-.11.025-.166.037c-.017,0-.131.019-.04.008s-.033,0-.056,0c-.069.006-.139.008-.208.008h-2.9c-.464,0-.932-.012-1.4,0h-.023l.481.481v-.483a2.426,2.426,0,0,0-.023-.6.674.674,0,0,0-.641-.487h-2.386a.928.928,0,0,0-.5.091.694.694,0,0,0-.329.612v.87l.481-.481h-4.327c-.091,0-.179-.008-.268-.015s.044.006.05.008c-.025-.006-.052-.008-.079-.013-.052-.01-.1-.019-.154-.033a2.22,2.22,0,0,1-.271-.085l-.071-.029c.139.046.054.023.021.008s-.092-.044-.137-.069a2.438,2.438,0,0,1-.237-.146c-.037-.025-.135-.121-.025-.015-.037-.035-.079-.064-.116-.1a2.385,2.385,0,0,1-.2-.2c-.027-.031-.052-.067-.081-.1.1.1.037.048.013.017l-.058-.083a2.481,2.481,0,0,1-.137-.229c-.021-.042-.04-.085-.062-.127-.042-.087.042.112.008.021-.01-.023-.019-.048-.027-.071a2.228,2.228,0,0,1-.081-.273c-.01-.042-.019-.085-.027-.129,0-.025-.008-.052-.013-.079.033.156.006.037,0,0-.008-.092-.01-.185-.01-.277v-.72c0-.206,0-.412,0-.616v-.012c0,.006,0-.058,0-.054.017.079-.017.1,0,.039a.324.324,0,0,0,.017-.062c-.01.023-.019.046-.029.067a.318.318,0,0,1,.023-.044.442.442,0,0,0,.04-.064c-.013.04-.073.083-.012.021.042-.042.071-.029-.021.012.021-.01.042-.029.064-.04a.322.322,0,0,0,.044-.023c-.091.064-.075.029-.019.015s.092.006-.027,0a.453.453,0,0,0,.052,0h0c.094,0,.189,0,.281,0h13.872c.35,0,.7-.006,1.053,0h0a.446.446,0,0,1,.052,0c-.025,0-.05-.008-.077-.01a.467.467,0,0,1,.05.012.277.277,0,0,0,.048.015l-.067-.029a.322.322,0,0,1,.044.023.441.441,0,0,0,.064.04c-.01,0-.089-.081-.04-.029a.344.344,0,0,0,.052.054l-.044-.058a.317.317,0,0,1,.027.042c.01.013.015.029.025.044.046.079-.031-.112-.012-.021a.528.528,0,0,0,.017.075c0-.025-.008-.05-.01-.077a.4.4,0,0,1,0,.05.481.481,0,0,0,.963,0,1.114,1.114,0,0,0-1.1-1.1H104.046a1.365,1.365,0,0,0-.331.037,1.115,1.115,0,0,0-.813,1.082c0,.451,0,.9,0,1.354a2.943,2.943,0,0,0,.947,2.18,2.974,2.974,0,0,0,2.008.768h4.286a.489.489,0,0,0,.481-.481v-.749a1.081,1.081,0,0,0,0-.158.313.313,0,0,1-.04.148.3.3,0,0,1-.108.108c.013-.008-.152.058-.152.04h.015a1.009,1.009,0,0,0,.108,0h2.216a1.25,1.25,0,0,0,.208,0,.294.294,0,0,1-.258-.148.365.365,0,0,1-.04-.146.245.245,0,0,0,0,.075v.83a.489.489,0,0,0,.481.481h3.368a9.814,9.814,0,0,0,1.448-.044,2.932,2.932,0,0,0,2.347-2.191,4.521,4.521,0,0,0,.081-1.044v-1.048a.479.479,0,1,0-.959,0Z" transform="translate(-0.042 -74.262)"/>
    <path id="Path_247027" data-name="Path 247027" d="M261.739,55.4h-5.663l.481.481V53.7c0,.008,0-.037,0-.04,0-.062-.035.123,0,.039a.277.277,0,0,0,.015-.048c0,.081-.044.087-.017.046.01-.015.058-.077,0-.013s.008,0,.019-.017.06-.056,0,0,0,.008.013,0c.042-.027.035.015-.046.017a.233.233,0,0,0,.048-.015c.085-.033-.1,0-.039,0l.04,0h4.45c.058,0,.114,0,.171,0h.029c.091,0-.089-.031-.038,0a.185.185,0,0,0,.062.017c-.012,0-.106-.058-.046-.017a.318.318,0,0,0,.042.027c-.06-.048-.075-.062-.048-.037a.351.351,0,0,1,.027.025c.01.01.023.029.033.037-.069-.05-.056-.075-.025-.025s-.01.042-.012-.035a.2.2,0,0,0,.015.048c.031.079-.015-.056,0-.052a.236.236,0,0,1,0,.054V53.7c.013.7,0,1.41,0,2.112v.067a.481.481,0,1,0,.963,0V53.768a1.069,1.069,0,0,0-.295-.782,1.048,1.048,0,0,0-.745-.295h-4.444c-.048,0-.1,0-.143,0a1.018,1.018,0,0,0-1,1c-.015.7,0,1.408,0,2.112v.075a.489.489,0,0,0,.481.481h5.663a.487.487,0,0,0,.481-.481.481.481,0,0,0-.476-.479Z" transform="translate(-147.346)"/>
  </g>
</svg>
